<svg width="97" height="54" viewBox="0 0 97 54" fill="none" xmlns="http://www.w3.org/2000/svg">
<circle cx="27" cy="27" r="27" fill="url(#paint0_linear_57_2)"/>
<path d="M31.7969 32.125H32.8672L37.4531 43H35.8281L34.7266 40.2656H29.8984L28.8047 43H27.2109L31.7969 32.125ZM34.2266 39.0156L32.3203 34.25L30.4062 39.0156H34.2266ZM39 32.125H42.0859C44.1432 32.125 45.4688 32.7344 46.0625 33.9531C46.276 34.401 46.3828 34.9323 46.3828 35.5469C46.3828 36.1615 46.2734 36.6875 46.0547 37.125C45.8359 37.5625 45.5417 37.9219 45.1719 38.2031C44.4531 38.7448 43.4922 39.0156 42.2891 39.0156H40.5625V43H39V32.125ZM41.9844 37.7656C42.9271 37.7656 43.625 37.5833 44.0781 37.2188C44.5312 36.8542 44.7578 36.2865 44.7578 35.5156C44.7578 34.4896 44.2812 33.8281 43.3281 33.5312C42.9948 33.4271 42.5911 33.375 42.1172 33.375H40.5625V37.7656H41.9844ZM48.2188 32.125H49.7812V41.625H54.4375V43H48.2188V32.125ZM55.8828 37.5781C55.8828 36.7292 56.0104 35.9609 56.2656 35.2734C56.5208 34.5859 56.875 34 57.3281 33.5156C58.2812 32.5052 59.5182 32 61.0391 32C62.5651 32 63.7995 32.5052 64.7422 33.5156C65.7005 34.5417 66.1797 35.8958 66.1797 37.5781C66.1797 39.2604 65.7005 40.6094 64.7422 41.625C63.8047 42.625 62.5703 43.125 61.0391 43.125C59.513 43.125 58.276 42.625 57.3281 41.625C56.3646 40.6042 55.8828 39.2552 55.8828 37.5781ZM57.4453 37.5703C57.4453 38.7578 57.7344 39.7396 58.3125 40.5156C58.9635 41.3802 59.8724 41.8125 61.0391 41.8125C62.2057 41.8125 63.112 41.3802 63.7578 40.5156C64.3307 39.75 64.6172 38.7734 64.6172 37.5859C64.6172 36.388 64.3307 35.401 63.7578 34.625C63.112 33.75 62.2057 33.3125 61.0391 33.3125C59.8672 33.3125 58.9583 33.75 58.3125 34.625C57.7344 35.401 57.4453 36.3828 57.4453 37.5703ZM67.8828 37.5781C67.8828 36.7292 68.0104 35.9609 68.2656 35.2734C68.5208 34.5859 68.875 34 69.3281 33.5156C70.2812 32.5052 71.5182 32 73.0391 32C74.5651 32 75.7995 32.5052 76.7422 33.5156C77.7005 34.5417 78.1797 35.8958 78.1797 37.5781C78.1797 39.2604 77.7005 40.6094 76.7422 41.625C75.8047 42.625 74.5703 43.125 73.0391 43.125C71.513 43.125 70.276 42.625 69.3281 41.625C68.3646 40.6042 67.8828 39.2552 67.8828 37.5781ZM69.4453 37.5703C69.4453 38.7578 69.7344 39.7396 70.3125 40.5156C70.9635 41.3802 71.8724 41.8125 73.0391 41.8125C74.2057 41.8125 75.112 41.3802 75.7578 40.5156C76.3307 39.75 76.6172 38.7734 76.6172 37.5859C76.6172 36.388 76.3307 35.401 75.7578 34.625C75.112 33.75 74.2057 33.3125 73.0391 33.3125C71.8672 33.3125 70.9583 33.75 70.3125 34.625C69.7344 35.401 69.4453 36.3828 69.4453 37.5703ZM86.4297 42.2422C86.0599 42.5026 85.5859 42.7083 85.0078 42.8594C84.4297 43.0052 83.7214 43.0781 82.8828 43.0781C82.0495 43.0781 81.2083 43.0286 80.3594 42.9297V41.4141C81.1198 41.5859 81.8854 41.6719 82.6562 41.6719C83.4271 41.6719 84.0052 41.6302 84.3906 41.5469C84.776 41.4583 85.0859 41.3438 85.3203 41.2031C85.7526 40.9427 85.9688 40.6042 85.9688 40.1875C85.9688 39.8646 85.8854 39.6146 85.7188 39.4375C85.4531 39.1615 85.0703 38.9089 84.5703 38.6797L82.5703 37.7656C81.8828 37.4427 81.3958 37.1432 81.1094 36.8672C80.4948 36.2734 80.1875 35.5859 80.1875 34.8047C80.1875 34.0026 80.5365 33.3542 81.2344 32.8594C82 32.3177 83.0885 32.0469 84.5 32.0469C85.4115 32.0469 86.2448 32.0833 87 32.1562V33.6484C86.3594 33.5026 85.6432 33.4297 84.8516 33.4297C84.0651 33.4297 83.4922 33.4714 83.1328 33.5547C82.7786 33.6328 82.5 33.7344 82.2969 33.8594C81.9271 34.0885 81.7422 34.3906 81.7422 34.7656C81.7422 35.1302 81.8594 35.4323 82.0938 35.6719C82.3021 35.875 82.6823 36.1094 83.2344 36.375L85.2891 37.3516C85.9714 37.6745 86.4479 37.9792 86.7188 38.2656C86.9948 38.5521 87.1979 38.8411 87.3281 39.1328C87.4583 39.4193 87.5234 39.7656 87.5234 40.1719C87.5234 40.5729 87.4349 40.9531 87.2578 41.3125C87.0807 41.6667 86.8047 41.9766 86.4297 42.2422Z" fill="black"/>
<defs>
<linearGradient id="paint0_linear_57_2" x1="43" y1="12" x2="0" y2="54" gradientUnits="userSpaceOnUse">
<stop stop-color="#EFA765"/>
<stop offset="1" stop-color="white" stop-opacity="0"/>
</linearGradient>
</defs>
</svg>
